<svg width="44" height="46" viewBox="0 0 44 46" fill="none" xmlns="http://www.w3.org/2000/svg">
<path d="M9.93848 11.835C9.98647 11.6963 10.0802 11.5781 10.2043 11.4998C10.3284 11.4215 10.4754 11.3878 10.6212 11.4042C11.5711 11.4042 12.5209 11.4042 13.4708 11.4042C13.9016 11.4042 14.0588 11.5356 14.1406 11.9427C14.3194 12.8042 14.4896 13.6657 14.6705 14.5553H14.9656C21.0997 14.5553 27.2331 14.5553 33.3659 14.5553C33.5054 14.549 33.6448 14.5717 33.7751 14.622C33.8833 14.669 33.9714 14.7527 34.0238 14.8583C34.0762 14.964 34.0896 15.0847 34.0616 15.1993C33.8979 16.5002 33.7335 17.8004 33.5683 19.0999C33.4563 19.9873 33.3529 20.8747 33.228 21.762C33.0385 23.0845 31.884 24.0064 30.5056 24.0021C25.9825 23.9848 21.4443 24.0021 16.9148 24.0021H16.5594C16.6369 24.3897 16.6908 24.7602 16.7877 25.1177C17.1345 26.4101 18.1188 27.151 19.4671 27.151H31.2228C31.3399 27.148 31.4569 27.1581 31.5717 27.1811C31.6879 27.2073 31.7907 27.2748 31.8608 27.3711C31.9309 27.4674 31.9637 27.5859 31.9529 27.7045C31.949 27.8222 31.9036 27.9347 31.8248 28.0222C31.746 28.1097 31.6388 28.1665 31.5222 28.1827C31.4292 28.1934 31.3357 28.1977 31.2422 28.1956H19.5016C17.4963 28.1956 16.0748 26.9937 15.6849 25.0208C14.8693 20.9027 14.0487 16.7881 13.2231 12.6771C13.2081 12.6044 13.1895 12.5325 13.1671 12.4617H12.9237C12.1612 12.4617 11.3988 12.4617 10.6385 12.4617C10.495 12.4814 10.3491 12.4538 10.2228 12.3831C10.0964 12.3123 9.99664 12.2023 9.93848 12.0697V11.835ZM32.9416 15.63H14.8794C15.3705 18.0811 15.8572 20.515 16.3462 22.9531H30.4926C31.4985 22.9531 32.1102 22.378 32.2157 21.3787C32.3859 19.9205 32.5776 18.4667 32.7606 17.0107C32.8274 16.5562 32.8834 16.0974 32.9416 15.63Z" fill="black"/>
<path d="M16.2363 31.883C16.2346 31.3645 16.3868 30.8571 16.6735 30.425C16.9602 29.993 17.3686 29.6557 17.847 29.4558C18.3254 29.2559 18.8524 29.2023 19.3613 29.302C19.8701 29.4016 20.338 29.65 20.7057 30.0155C21.0734 30.3811 21.3244 30.8476 21.427 31.3559C21.5296 31.8641 21.4791 32.3914 21.2819 32.871C21.0848 33.3506 20.7498 33.7609 20.3194 34.0501C19.889 34.3393 19.3826 34.4943 18.864 34.4956C18.5198 34.4973 18.1785 34.431 17.8599 34.3005C17.5413 34.17 17.2517 33.9778 17.0075 33.7351C16.7634 33.4923 16.5696 33.2038 16.4372 32.8859C16.3049 32.5681 16.2366 32.2273 16.2363 31.883ZM18.849 30.302C18.5386 30.3029 18.2354 30.3957 17.9778 30.5688C17.7202 30.7418 17.5196 30.9873 17.4014 31.2743C17.2832 31.5613 17.2527 31.8769 17.3138 32.1812C17.3749 32.4855 17.5248 32.7648 17.7445 32.984C17.9643 33.2031 18.2441 33.3523 18.5485 33.4125C18.853 33.4727 19.1685 33.4414 19.4551 33.3224C19.7418 33.2035 19.9868 33.0022 20.1591 32.7441C20.3314 32.486 20.4234 32.1826 20.4234 31.8722C20.4217 31.4556 20.2551 31.0565 19.9601 30.7623C19.6651 30.4681 19.2656 30.3026 18.849 30.302Z" fill="black"/>
<path d="M29.3338 29.2531C29.8522 29.2518 30.3594 29.4043 30.7912 29.6913C31.2229 29.9783 31.5599 30.3868 31.7595 30.8653C31.959 31.3438 32.0122 31.8707 31.9124 32.3794C31.8125 32.8881 31.564 33.3558 31.1983 33.7233C30.8326 34.0907 30.3662 34.3415 29.858 34.4439C29.3497 34.5463 28.8226 34.4957 28.3431 34.2985C27.8637 34.1013 27.4535 33.7663 27.1644 33.336C26.8753 32.9057 26.7203 32.3992 26.719 31.8808C26.7173 31.5364 26.7837 31.195 26.9143 30.8762C27.045 30.5575 27.2373 30.2677 27.4803 30.0235C27.7233 29.7794 28.0121 29.5856 28.3302 29.4534C28.6483 29.3212 28.9893 29.2531 29.3338 29.2531ZM30.9104 31.87C30.91 31.5597 30.8176 31.2564 30.6449 30.9985C30.4722 30.7406 30.2269 30.5397 29.9401 30.4212C29.6533 30.3026 29.3378 30.2717 29.0334 30.3323C28.729 30.393 28.4495 30.5425 28.23 30.7619C28.0105 30.9814 27.861 31.261 27.8004 31.5654C27.7397 31.8697 27.7706 32.1853 27.8892 32.4721C28.0078 32.7589 28.2087 33.0041 28.4666 33.1768C28.7245 33.3495 29.0277 33.4419 29.3381 33.4424C29.7551 33.4424 30.155 33.2767 30.4499 32.9818C30.7448 32.687 30.9104 32.287 30.9104 31.87Z" fill="black"/>
<path d="M9.93848 11.835C9.98647 11.6963 10.0802 11.5781 10.2043 11.4998C10.3284 11.4215 10.4754 11.3878 10.6212 11.4042C11.5711 11.4042 12.5209 11.4042 13.4708 11.4042C13.9016 11.4042 14.0588 11.5356 14.1406 11.9427C14.3194 12.8042 14.4896 13.6657 14.6705 14.5553H14.9656C21.0997 14.5553 27.2331 14.5553 33.3659 14.5553C33.5054 14.549 33.6448 14.5717 33.7751 14.622C33.8833 14.669 33.9714 14.7527 34.0238 14.8583C34.0762 14.964 34.0896 15.0847 34.0616 15.1993C33.8979 16.5002 33.7335 17.8004 33.5683 19.0999C33.4563 19.9873 33.3529 20.8747 33.228 21.762C33.0385 23.0845 31.884 24.0064 30.5056 24.0021C25.9825 23.9848 21.4443 24.0021 16.9148 24.0021H16.5594C16.6369 24.3897 16.6908 24.7602 16.7877 25.1177C17.1345 26.4101 18.1188 27.151 19.4671 27.151H31.2228C31.3399 27.148 31.4569 27.1581 31.5717 27.1811C31.6879 27.2073 31.7907 27.2748 31.8608 27.3711C31.9309 27.4674 31.9637 27.5859 31.9529 27.7045C31.949 27.8222 31.9036 27.9347 31.8248 28.0222C31.746 28.1097 31.6388 28.1665 31.5222 28.1827C31.4292 28.1934 31.3357 28.1977 31.2422 28.1956H19.5016C17.4963 28.1956 16.0748 26.9937 15.6849 25.0208C14.8693 20.9027 14.0487 16.7881 13.2231 12.6771C13.2081 12.6044 13.1895 12.5325 13.1671 12.4617H12.9237C12.1612 12.4617 11.3988 12.4617 10.6385 12.4617C10.495 12.4814 10.3491 12.4538 10.2228 12.3831C10.0964 12.3123 9.99664 12.2023 9.93848 12.0697V11.835ZM32.9416 15.63H14.8794C15.3705 18.0811 15.8572 20.515 16.3462 22.9531H30.4926C31.4985 22.9531 32.1102 22.378 32.2157 21.3787C32.3859 19.9205 32.5776 18.4667 32.7606 17.0107C32.8274 16.5562 32.8834 16.0974 32.9416 15.63Z" fill="#E2B013"/>
<path d="M16.2363 31.883C16.2346 31.3645 16.3868 30.8571 16.6735 30.425C16.9602 29.993 17.3686 29.6557 17.847 29.4558C18.3254 29.2559 18.8524 29.2023 19.3613 29.302C19.8701 29.4016 20.338 29.65 20.7057 30.0155C21.0734 30.3811 21.3244 30.8476 21.427 31.3559C21.5296 31.8641 21.4791 32.3914 21.2819 32.871C21.0848 33.3506 20.7498 33.7609 20.3194 34.0501C19.889 34.3393 19.3826 34.4943 18.864 34.4956C18.5198 34.4973 18.1785 34.431 17.8599 34.3005C17.5413 34.17 17.2517 33.9778 17.0075 33.7351C16.7634 33.4923 16.5696 33.2038 16.4372 32.8859C16.3049 32.5681 16.2366 32.2273 16.2363 31.883ZM18.849 30.302C18.5386 30.3029 18.2354 30.3957 17.9778 30.5688C17.7202 30.7418 17.5196 30.9873 17.4014 31.2743C17.2832 31.5613 17.2527 31.8769 17.3138 32.1812C17.3749 32.4855 17.5248 32.7648 17.7445 32.984C17.9643 33.2031 18.2441 33.3523 18.5485 33.4125C18.853 33.4727 19.1685 33.4414 19.4551 33.3224C19.7418 33.2035 19.9868 33.0022 20.1591 32.7441C20.3314 32.486 20.4234 32.1826 20.4234 31.8722C20.4217 31.4556 20.2551 31.0565 19.9601 30.7623C19.6651 30.4681 19.2656 30.3026 18.849 30.302Z" fill="#E2B013"/>
<path d="M29.3338 29.2531C29.8522 29.2518 30.3594 29.4043 30.7912 29.6913C31.2229 29.9783 31.5599 30.3868 31.7595 30.8653C31.959 31.3438 32.0122 31.8707 31.9124 32.3794C31.8125 32.8881 31.564 33.3558 31.1983 33.7233C30.8326 34.0907 30.3662 34.3415 29.858 34.4439C29.3497 34.5463 28.8226 34.4957 28.3431 34.2985C27.8637 34.1013 27.4535 33.7663 27.1644 33.336C26.8753 32.9057 26.7203 32.3992 26.719 31.8808C26.7173 31.5364 26.7837 31.195 26.9143 30.8762C27.045 30.5575 27.2373 30.2677 27.4803 30.0235C27.7233 29.7794 28.0121 29.5856 28.3302 29.4534C28.6483 29.3212 28.9893 29.2531 29.3338 29.2531ZM30.9104 31.87C30.91 31.5597 30.8176 31.2564 30.6449 30.9985C30.4722 30.7406 30.2269 30.5397 29.9401 30.4212C29.6533 30.3026 29.3378 30.2717 29.0334 30.3323C28.729 30.393 28.4495 30.5425 28.23 30.7619C28.0105 30.9814 27.861 31.261 27.8004 31.5654C27.7397 31.8697 27.7706 32.1853 27.8892 32.4721C28.0078 32.7589 28.2087 33.0041 28.4666 33.1768C28.7245 33.3495 29.0277 33.4419 29.3381 33.4424C29.7551 33.4424 30.155 33.2767 30.4499 32.9818C30.7448 32.687 30.9104 32.287 30.9104 31.87Z" fill="#E2B013"/>
</svg>
